<?xml version="1.0" encoding="utf-8"?>
<!-- Generator: Adobe Illustrator 22.1.0, SVG Export Plug-In . SVG Version: 6.00 Build 0)  -->
<svg version="1.1" id="Layer_1" xmlns="http://www.w3.org/2000/svg" xmlns:xlink="http://www.w3.org/1999/xlink" x="0px" y="0px"
	 viewBox="0 0 100 100" style="enable-background:new 0 0 100 100;" xml:space="preserve">
<style type="text/css">
	.st0{fill:#B8BBBF;}
</style>
<path class="st0" d="M36.3,13.8L4.4,45.7c-1.2,1.2-1.8,2.8-1.8,4.4c0,1.6,0.6,3.2,1.8,4.4l31.9,31.9c2.4,2.4,6.4,2.4,8.8,0
	c2.4-2.4,2.4-6.4,0-8.8L24,56.5h67.3c3.4,0,6.2-2.8,6.2-6.2s-2.8-6.2-6.2-6.2H23.5L45,22.6c2.4-2.4,2.4-6.4,0-8.8
	C42.6,11.3,38.9,11.3,36.3,13.8z"/>
</svg>
