<?xml version="1.0" encoding="utf-8"?>
<!-- Generator: Adobe Illustrator 22.1.0, SVG Export Plug-In . SVG Version: 6.00 Build 0)  -->
<svg version="1.1" id="Layer_1" xmlns="http://www.w3.org/2000/svg" xmlns:xlink="http://www.w3.org/1999/xlink" x="0px" y="0px"
	 viewBox="0 0 100 100" style="enable-background:new 0 0 100 100;" xml:space="preserve">
<style type="text/css">
	.st0{fill:#B8BBBF;}
</style>
<path class="st0" d="M63.8,86.3l31.9-31.9c1.2-1.2,1.8-2.8,1.8-4.4c0-1.6-0.6-3.2-1.8-4.4L63.8,13.7c-2.4-2.4-6.4-2.4-8.8,0
	c-2.4,2.4-2.4,6.4,0,8.8l21.1,21.1H8.8c-3.4,0-6.2,2.8-6.2,6.2S5.4,56,8.8,56h67.8L55.1,77.5c-2.4,2.4-2.4,6.4,0,8.8
	C57.5,88.8,61.2,88.8,63.8,86.3z"/>
</svg>
