<svg height="30" viewBox="0 0 30 30" width="30" xmlns="http://www.w3.org/2000/svg"><path d="m20.6629908 12.2595754c.7536338 0 1.4130633.1507517 1.9792355.4571656.5633318.3024854 1.0258319.7115282 1.3889205 1.2246732.3626153.5111808.6215586 1.0965098.7829839 1.7535318.1600051.6550578.2163383 1.3400695.1704197 2.0565083h-6.4276631c0 .7306791.2376408 1.4225655.6049899 1.7937976.3668758.3712322.896597.5578304 1.5830097.5578304.4932704 0 .9193196-.1296367 1.277201-.3874368.3545677-.2578001.5704326-.5332779.6537489-.8190677h2.1548625c-.3465201 1.1122233-.8715075 1.9062476-1.5886904 2.3840371-.7086619.4797538-1.5721217.7193851-2.5790181.7193851-.7015611 0-1.3330608-.1178515-1.9001797-.3501171-.5666455-.2347209-1.0400336-.5642139-1.4386263-.9933897-.3881782-.4316311-.6897264-.9408477-.9046446-1.539926-.2125512-.59515-.3195369-1.2546272-.3195369-1.9691018 0-.6909042.1112462-1.3361411.3290047-1.9332552.2215456-.5980963.5292478-1.1151696.9330478-1.5482738.4047468-.4355594.8842889-.7788019 1.4428868-1.0302183.5590713-.2499434 1.1754226-.3761427 1.8580482-.3761427zm-9.8630403-3.2595754c.5884214 0 1.1195628.05254212 1.6052589.16155473.4823825.10606633.8937567.2833346 1.2421703.52640327.342733.24306867.611144.5661781.8033396.9732568.1869882.401186.2811925.903528.2811925 1.4976958 0 .6422906-.1401229 1.1790058-.4217888 1.6076906-.2830861.4286847-.6991942.7797839-1.2544784 1.0523155.7560008.225882 1.317439.6231397 1.6890486 1.1883357.3735032.5691244.5567044 1.2502077.5567044 2.0486515 0 .647201-.1192938 1.2040493-.3583548 1.6725089-.2409545.4748432-.5690124.8588426-.9732858 1.1559266-.4075871.2990481-.8748212.5190375-1.3993351.6619324-.5178866.1424039-1.0561288.2140969-1.6080993.2140969h-5.9623226v-12.7603687zm-.1467503 7.0730528h-2.94447371v3.5144293h2.89098091c.2669908 0 .5207268-.0250435.7593144-.0800408.2419013-.0549974.4568195-.1419129.6381271-.2705674.1808343-.1242351.3318451-.2936466.4402509-.5092166.1093527-.2140968.1623721-.4915388.1623721-.8274156 0-.657513-.1789407-1.1244995-.5335083-1.4083251-.3559878-.2794062-.8298493-.4188638-1.4130634-.4188638zm9.9364154-1.8969177c-.3910185 0-.7143426.0682556-.9737592.2072222-.253736.1370023-.46108.3078869-.619665.5087255-.1581116.2047669-.2650973.420828-.3280579.6511294-.0624872.2248999-.1003583.4291758-.1112462.6088993h3.9802468c-.0582267-.64671-.2717247-1.1254816-.5638052-1.4618494-.2911336-.3334214-.7829838-.514127-1.3837133-.514127zm-10.3468428-3.0027574h-2.53404631v2.9821334h2.74139021c.4795422 0 .8767147-.1183426 1.1915178-.3579739.3119627-.2357029.4625001-.6255949.4625001-1.160346 0-.2970839-.0501791-.5421168-.1505374-.7331344-.1046187-.1900355-.2433214-.339314-.4175282-.4434162-.1732601-.1085215-.3697161-.1836519-.596469-.2239178-.2234392-.0456674-.4568195-.0633451-.6968272-.0633451zm12.7999398-1.31748135v1.25904665h-4.9866699v-1.25904665z" fill="#2252f2" fill-rule="evenodd"/></svg>