<?xml version="1.0" encoding="UTF-8"?>
<svg width="51px" height="51px" viewBox="0 0 51 51" version="1.1" xmlns="http://www.w3.org/2000/svg" xmlns:xlink="http://www.w3.org/1999/xlink">
    <title>noun_X_1890803</title>
    <g id="Page-1" stroke="none" stroke-width="1" fill="none" fill-rule="evenodd">
        <g id="noun_X_1890803" fill="#121E2B">
            <circle id="Oval" opacity="0.100000001" cx="25.5" cy="25.5" r="25.5"></circle>
            <path d="M28.2116904,25 L35.5418641,17.6698262 C36.152712,17.0589784 36.152712,16.0689837 35.5418641,15.4581359 C34.9310163,14.847288 33.9410216,14.847288 33.3301738,15.4581359 L26,22.7883096 L18.6698262,15.4581359 C18.0589784,14.847288 17.0689837,14.847288 16.4581359,15.4581359 C15.847288,16.0689837 15.847288,17.0589784 16.4581359,17.6698262 L23.7883096,25 L16.4581359,32.3301738 C15.847288,32.9410216 15.847288,33.9310163 16.4581359,34.5418641 C16.7530279,34.8367562 17.1532385,35.0052659 17.5534492,35.0052659 C17.9536598,35.0052659 18.3538705,34.8578199 18.6487625,34.5418641 L26,27.2116904 L33.3301738,34.5418641 C33.6250658,34.8367562 34.0252765,35.0052659 34.4254871,35.0052659 C34.8256977,35.0052659 35.2259084,34.8578199 35.5208004,34.5418641 C36.1316482,33.9310163 36.1316482,32.9410216 35.5208004,32.3301738 L28.2116904,25 Z" id="Path" fill-rule="nonzero"></path>
        </g>
    </g>
</svg>