<svg height="30" viewBox="0 0 30 30" width="30" xmlns="http://www.w3.org/2000/svg"><path d="m14.9989871 4c-6.07348294 0-10.9989871 5.04946255-10.9989871 11.2787255 0 4.9829949 3.15153934 9.2099206 7.5226373 10.701288.5503545.1038556.7509131-.244407.7509131-.5435114 0-.2672552-.0094539-.9769356-.0148561-1.917868-3.05970108.6812932-3.70527032-1.5121385-3.70527032-1.5121385-.50038368-1.3030424-1.22158445-1.6499204-1.22158445-1.6499204-.99874152-.6992948.07563154-.6854474.07563154-.6854474 1.10408545.0796227 1.68482765 1.1624911 1.68482765 1.1624911.98118418 1.7233118 2.57484878 1.2254969 3.20151018.9367782.0999417-.7283744.3842352-1.2254969.6982412-1.507292-2.4424936-.2845645-5.01058965-1.2524993-5.01058965-5.5742798 0-1.2310359.42880383-2.2384358 1.13244728-3.0263542-.11344731-.2852569-.49092974-1.4325158.10804506-2.98481184 0 0 .92311001-.30325855 3.02458641 1.15625977.8771908-.25063835 1.8185334-.37526515 2.7537984-.38011175.9345898.0048466 1.8752571.1294734 2.7537985.38011175 2.1001258-1.45951832 3.0218853-1.15625977 3.0218853-1.15625977.6003253 1.55229604.2228429 2.69955494.1100709 2.98481184.704994.7879184 1.1304214 1.7953183 1.1304214 3.0263542 0 4.3328584-2.5721477 5.2862535-5.0220694 5.565279.3943644.3482627.7461862 1.0364796.7461862 2.0888837 0 1.5072919-.0135057 2.723788-.0135057 3.0935141 0 .3018738.1985328.652906.7563155.542819 4.3677215-1.4948293 7.5165597-5.7189854 7.5165597-10.7005956 0-6.22926295-4.9255042-11.2787255-11.0010129-11.2787255" fill="#161514" fill-rule="evenodd"/></svg>