<svg height="30" viewBox="0 0 30 30" width="30" xmlns="http://www.w3.org/2000/svg"><path d="m21.9501175 18.6075899c-.0417024-.0629981-.1042561-.0629981-.1251073.0419987-.3544707.5879823-.9800073 1.427957-1.9391634 2.5199241-1.1676682 1.3649589-2.5438487 2.6249209-2.9817243 2.6459203-.2293634.0209993-.6463878-.2939912-.667239-.9659709-.0625537-1.3859583.9174536-3.2129032 2.5229975-6.5518026.6463878-1.3859582 1.6889488-3.086907 1.0217097-3.5908918-.291917-.1889943-.8757512-.3989879-1.2302219-.3779886-.5838341.0209994-.7923463.398988-1.1885195 1.0079697-.3961731.5879822-3.2319389 4.0948765-3.2319389 4.0948765-1.4387341 1.9319418-2.5647 3.485895-2.9817243 4.1368754.4378756-1.4069576 1.9183121-5.4808349 4.378756-12.32662854.4170243-1.19696393.9383048-2.37292849.9174536-2.81391519-.0208512-.39898798-.3127683-.71397849-.8131975-1.02896899-.3961732-.27299178-1.042561-.39898798-1.3761805-.39898798-.3127683 0-.8549 2.49892469-1.7306512 5.4388361l-3.12768284 9.3867171c-.93830486 3.086907-1.4178829 4.7668563-1.39703168 5.0188487.04170244.6719798 1.18851948 1.1759646 1.87660971 1.1549652.14595851 0 .33361951-.6929791.64638781-1.2809614.8549-1.5329538 1.7515024-2.918912 2.7523609-4.178874 1.4804366-1.9319418 2.5646999-3.0029095 2.7523609-3.1709045-.5838341 1.5119545-.9591561 2.7719165-1.1051146 3.8218849-.3127683 1.9949398.0417024 3.2759012.9591561 3.947881 1.4595853 1.0919671 3.2319389-.6719798 4.4830121-2.6459203.3753219-.6509804.7297926-1.3439595 1.0634122-2.0999367.3336195-.7559772.5421316-1.2809614.5629829-1.5749525.0208512-.0839975 0-.1469956-.0417025-.2099937z" fill="#588abf"/></svg>