<?xml version="1.0" encoding="utf-8"?>
<!-- Generator: Adobe Illustrator 23.0.1, SVG Export Plug-In . SVG Version: 6.00 Build 0)  -->
<svg version="1.1" id="Layer_1" xmlns="http://www.w3.org/2000/svg" xmlns:xlink="http://www.w3.org/1999/xlink" x="0px" y="0px"
	 viewBox="0 0 376 484.1" style="enable-background:new 0 0 376 484.1;" xml:space="preserve">
<g>
	<path d="M53,484.1h270c29.2,0,53-23.7,53-52.9V240.9c0-28-22-51-49-52.9v-56.1C327,59.2,267.7,0,195,0S63,59.2,63,131.9v56.2H53
		c-29.2,0-53,23.5-53,52.8v190.3C0,460.4,23.8,484.1,53,484.1z M87,131.9C87,72.4,135.5,24,195,24s108,48.4,108,107.9v56.2H87V131.9
		z M352,431.1c0,16-13,29-29,29H53c-16,0-29-13-29-29v-190c0-16,13-29,29-29h270c16,0,29,13,29,29V431.1z"/>
	<path d="M188,378.6c6.6,0,12-5.4,12-12v-61.4c0-6.6-5.4-12-12-12s-12,5.4-12,12v61.4C176,373.2,181.4,378.6,188,378.6z"/>
</g>
</svg>
