<svg height="30" viewBox="0 0 30 30" width="30" xmlns="http://www.w3.org/2000/svg"><path d="m15 5c5.5228333 0 10 4.47716667 10 10 0 5.5228333-4.4771667 10-10 10-5.52283333 0-10-4.4771667-10-10 0-5.52283333 4.47716667-10 10-10zm1.3333333 4.99996667h-4.8333333v10.00000003h2v-2.9999167h2.8333333v-.0000833c1.933 0 3.5-1.567 3.5-3.5 0-1.8685667-1.4642744-3.3951267-3.3079644-3.4948212zm0 2.00000003c.8284167 0 1.5.6715833 1.5 1.5 0 .8284166-.6715833 1.5-1.5 1.5v.0000833h-2.8333333v-3h2.8333333z" fill="#da552f" fill-rule="evenodd"/></svg>