<?xml version="1.0" encoding="UTF-8"?>
<svg width="30px" height="30px" viewBox="0 0 30 30" version="1.1" xmlns="http://www.w3.org/2000/svg" xmlns:xlink="http://www.w3.org/1999/xlink">
    <!-- Generator: Sketch 64 (93537) - https://sketch.com -->
    <title>social-ph</title>
    <desc>Created with Sketch.</desc>
    <g id="social-ph" stroke="none" stroke-width="1" fill="none" fill-rule="evenodd">
        <path d="M15,5 C20.5228333,5 25,9.47716667 25,15 C25,20.5228333 20.5228333,25 15,25 C9.47716667,25 5,20.5228333 5,15 C5,9.47716667 9.47716667,5 15,5 Z M16.3333333,9.99996667 L11.5,9.99996667 L11.5,19.9999667 L13.5,19.9999667 L13.5,17.00005 L16.3333333,17.00005 L16.3333333,16.9999667 C18.2663333,16.9999667 19.8333333,15.4329667 19.8333333,13.4999667 C19.8333333,11.6314 18.3690589,10.10484 16.5253689,10.0051455 L16.3333333,9.99996667 Z M16.3333333,11.9999667 C17.16175,11.9999667 17.8333333,12.67155 17.8333333,13.4999667 C17.8333333,14.3283833 17.16175,14.9999667 16.3333333,14.9999667 L16.3333333,15.00005 L13.5,15.00005 L13.5,12.00005 L16.3333333,12.00005 L16.3333333,11.9999667 Z" id="Combined-Shape" fill="#DA552F"></path>
    </g>
</svg>