<?xml version="1.0" encoding="UTF-8"?>
<svg width="30px" height="30px" viewBox="0 0 30 30" version="1.1" xmlns="http://www.w3.org/2000/svg" xmlns:xlink="http://www.w3.org/1999/xlink">
    <!-- Generator: Sketch 64 (93537) - https://sketch.com -->
    <title>social-behance</title>
    <desc>Created with Sketch.</desc>
    <g id="social-behance" stroke="none" stroke-width="1" fill="none" fill-rule="evenodd">
        <path d="M20.6629908,12.2595754 C21.4166246,12.2595754 22.0760541,12.4103271 22.6422263,12.716741 C23.2055581,13.0192264 23.6680582,13.4282692 24.0311468,13.9414142 C24.3937621,14.452595 24.6527054,15.037924 24.8141307,15.694946 C24.9741358,16.3500038 25.030469,17.0350155 24.9845504,17.7514543 L18.5568873,17.7514543 C18.5568873,18.4821334 18.7945281,19.1740198 19.1618772,19.5452519 C19.528753,19.9164841 20.0584742,20.1030823 20.7448869,20.1030823 C21.2381573,20.1030823 21.6642065,19.9734456 22.0220879,19.7156455 C22.3766556,19.4578454 22.5925205,19.1823676 22.6758368,18.8965778 L24.8306993,18.8965778 C24.4841792,20.0088011 23.9591918,20.8028254 23.2420089,21.2806149 C22.533347,21.7603687 21.6698872,22 20.6629908,22 C19.9614297,22 19.32993,21.8821485 18.7628111,21.6498829 C18.1961656,21.415162 17.7227775,21.085669 17.3241848,20.6564932 C16.9360066,20.2248621 16.6344584,19.7156455 16.4195402,19.1165672 C16.206989,18.5214172 16.1000033,17.86194 16.1000033,17.1474654 C16.1000033,16.4565612 16.2112495,15.8113243 16.429008,15.2142102 C16.6505536,14.6161139 16.9582558,14.0990406 17.3620558,13.6659364 C17.7668026,13.230377 18.2463447,12.8871345 18.8049426,12.6357181 C19.3640139,12.3857747 19.9803652,12.2595754 20.6629908,12.2595754 Z M10.7999505,9 C11.3883719,9 11.9195133,9.05254212 12.4052094,9.16155473 C12.8875919,9.26762106 13.2989661,9.44488933 13.6473797,9.687958 C13.9901127,9.93102667 14.2585237,10.2541361 14.4507193,10.6612148 C14.6377075,11.0624008 14.7319118,11.5647428 14.7319118,12.1589106 C14.7319118,12.8012012 14.5917889,13.3379164 14.310123,13.7666012 C14.0270369,14.1952859 13.6109288,14.5463851 13.0556446,14.8189167 C13.8116454,15.0447987 14.3730836,15.4420564 14.7446932,16.0072524 C15.1181964,16.5763768 15.3013976,17.2574601 15.3013976,18.0559039 C15.3013976,18.7031049 15.1821038,19.2599532 14.9430428,19.7284128 C14.7020883,20.203256 14.3740304,20.5872554 13.969757,20.8843394 C13.5621699,21.1833875 13.0949358,21.4033769 12.5704219,21.5462718 C12.0525353,21.6886757 11.5142931,21.7603687 10.9623226,21.7603687 L5,21.7603687 L5,9 L10.7999505,9 Z M10.6532002,16.0730528 L7.70872649,16.0730528 L7.70872649,19.5874821 L10.5997074,19.5874821 C10.8666982,19.5874821 11.1204342,19.5624386 11.3590218,19.5074413 C11.6009231,19.4524439 11.8158413,19.3655284 11.9971489,19.2368739 C12.1779832,19.1126388 12.328994,18.9432273 12.4373998,18.7276573 C12.5467525,18.5135605 12.5997719,18.2361185 12.5997719,17.9002417 C12.5997719,17.2427287 12.4208312,16.7757422 12.0662636,16.4919166 C11.7102758,16.2125104 11.2364143,16.0730528 10.6532002,16.0730528 Z M20.5896156,14.1761351 C20.1985971,14.1761351 19.875273,14.2443907 19.6158564,14.3833573 C19.3621204,14.5203596 19.1547764,14.6912442 18.9961914,14.8920828 C18.8380798,15.0968497 18.7310941,15.3129108 18.6681335,15.5432122 C18.6056463,15.7681121 18.5677752,15.972388 18.5568873,16.1521115 L22.5371341,16.1521115 C22.4789074,15.5054015 22.2654094,15.0266299 21.9733289,14.6902621 C21.6821953,14.3568407 21.1903451,14.1761351 20.5896156,14.1761351 Z M10.2427728,11.1733777 L7.70872649,11.1733777 L7.70872649,14.1555111 L10.4501167,14.1555111 C10.9296589,14.1555111 11.3268314,14.0371685 11.6416345,13.7975372 C11.9535972,13.5618343 12.1041346,13.1719423 12.1041346,12.6371912 C12.1041346,12.3401073 12.0539555,12.0950744 11.9535972,11.9040568 C11.8489785,11.7140213 11.7102758,11.5647428 11.536069,11.4606406 C11.3628089,11.3521191 11.1663529,11.2769887 10.9396,11.2367228 C10.7161608,11.1910554 10.4827805,11.1733777 10.2427728,11.1733777 Z M23.0427126,9.85589635 L23.0427126,11.114943 L18.0560427,11.114943 L18.0560427,9.85589635 L23.0427126,9.85589635 Z" id="Combined-Shape" fill="#2252F2"></path>
    </g>
</svg>