<?xml version="1.0" encoding="UTF-8"?>
<svg width="30px" height="30px" viewBox="0 0 30 30" version="1.1" xmlns="http://www.w3.org/2000/svg" xmlns:xlink="http://www.w3.org/1999/xlink">
    <!-- Generator: Sketch 64 (93537) - https://sketch.com -->
    <title>social-hyperion</title>
    <desc>Created with Sketch.</desc>
    <g id="social-hyperion" stroke="none" stroke-width="1" fill="none" fill-rule="evenodd">
        <path d="M21.9501175,18.6075899 C21.9084151,18.5445918 21.8458614,18.5445918 21.8250102,18.6495886 C21.4705395,19.2375709 20.8450029,20.0775456 19.8858468,21.1695127 C18.7181786,22.5344716 17.3419981,23.7944336 16.9041225,23.815433 C16.6747591,23.8364323 16.2577347,23.5214418 16.2368835,22.8494621 C16.1743298,21.4635038 17.1543371,19.6365589 18.759881,16.2976595 C19.4062688,14.9117013 20.4488298,13.2107525 19.7815907,12.7067677 C19.4896737,12.5177734 18.9058395,12.3077798 18.5513688,12.3287791 C17.9675347,12.3497785 17.7590225,12.7277671 17.3628493,13.3367488 C16.9666762,13.924731 14.1309104,17.4316253 14.1309104,17.4316253 C12.6921763,19.3635671 11.5662104,20.9175203 11.1491861,21.5685007 C11.5870617,20.1615431 13.0674982,16.0876658 15.5279421,9.24187216 C15.9449664,8.04490823 16.4662469,6.86894367 16.4453957,6.42795697 C16.4245445,6.02896899 16.1326274,5.71397848 15.6321982,5.39898798 C15.236025,5.1259962 14.5896372,5 14.2560177,5 C13.9432494,5 13.4011177,7.49892469 12.5253665,10.4388361 L9.39768366,19.8255532 C8.4593788,22.9124602 7.97980076,24.5924095 8.00065198,24.8444019 C8.04235442,25.5163817 9.18917146,26.0203665 9.87726169,25.9993671 C10.0232202,25.9993671 10.2108812,25.306388 10.5236495,24.7184057 C11.3785495,23.1854519 12.2751519,21.7994937 13.2760104,20.5395317 C14.756447,18.6075899 15.8407103,17.5366222 16.0283713,17.3686272 C15.4445372,18.8805817 15.0692152,20.1405437 14.9232567,21.1905121 C14.6104884,23.1854519 14.9649591,24.4664133 15.8824128,25.1383931 C17.3419981,26.2303602 19.1143517,24.4664133 20.3654249,22.4924728 C20.7407468,21.8414924 21.0952175,21.1485133 21.4288371,20.3925361 C21.7624566,19.6365589 21.9709687,19.1115747 21.99182,18.8175836 C22.0126712,18.7335861 21.99182,18.670588 21.9501175,18.6075899 Z" id="Path" fill="#588ABF" fill-rule="nonzero"></path>
    </g>
</svg>