<?xml version="1.0" encoding="UTF-8"?>
<svg width="30px" height="30px" viewBox="0 0 30 30" version="1.1" xmlns="http://www.w3.org/2000/svg" xmlns:xlink="http://www.w3.org/1999/xlink">
    <!-- Generator: Sketch 64 (93537) - https://sketch.com -->
    <title>social-github</title>
    <desc>Created with Sketch.</desc>
    <g id="social-github" stroke="none" stroke-width="1" fill="none" fill-rule="evenodd">
        <path d="M14.9989871,4 C8.92550416,4 4,9.04946255 4,15.2787255 C4,20.2617204 7.15153934,24.4886461 11.5226373,25.9800135 C12.0729918,26.0838691 12.2735504,25.7356065 12.2735504,25.4365021 C12.2735504,25.1692469 12.2640965,24.4595665 12.2586943,23.5186341 C9.19899322,24.1999273 8.55342398,22.0064956 8.55342398,22.0064956 C8.0530403,20.7034532 7.33183953,20.3565752 7.33183953,20.3565752 C6.33309801,19.6572804 7.40747107,19.6711278 7.40747107,19.6711278 C8.51155652,19.7507505 9.09229872,20.8336189 9.09229872,20.8336189 C10.0734829,22.5569307 11.6671475,22.0591158 12.2938089,21.7703971 C12.3937506,21.0420227 12.6780441,20.5449002 12.9920501,20.2631051 C10.5495565,19.9785406 7.98146045,19.0106058 7.98146045,14.6888253 C7.98146045,13.4577894 8.41026428,12.4503895 9.11390773,11.6624711 C9.00046042,11.3772142 8.62297799,10.2299553 9.22195279,8.67765926 C9.22195279,8.67765926 10.1450628,8.37440071 12.2465392,9.83391903 C13.12373,9.58328068 14.0650726,9.45865388 15.0003376,9.45380728 C15.9349274,9.45865388 16.8755947,9.58328068 17.7541361,9.83391903 C19.8542619,8.37440071 20.7760214,8.67765926 20.7760214,8.67765926 C21.3763467,10.2299553 20.9988643,11.3772142 20.8860923,11.6624711 C21.5910863,12.4503895 22.0165137,13.4577894 22.0165137,14.6888253 C22.0165137,19.0216837 19.444366,19.9750788 16.9944443,20.2541043 C17.3888087,20.602367 17.7406305,21.2905839 17.7406305,22.342988 C17.7406305,23.8502799 17.7271248,25.066776 17.7271248,25.4365021 C17.7271248,25.7383759 17.9256576,26.0894081 18.4834403,25.9793211 C22.8511618,24.4844918 26,20.2603357 26,15.2787255 C26,9.04946255 21.0744958,4 14.9989871,4" id="Fill-4" fill="#161514"></path>
    </g>
</svg>